<svg xmlns="http://www.w3.org/2000/svg" xmlns:xlink="http://www.w3.org/1999/xlink" width="64" zoomAndPan="magnify" viewBox="0 0 48 48" height="64" preserveAspectRatio="xMidYMid meet" version="1.0"><defs><clipPath id="d4f6e16ee7"><path d="M 0.488281 0 L 47.507812 0 L 47.507812 47.019531 L 0.488281 47.019531 Z M 0.488281 0 " clip-rule="nonzero"/></clipPath></defs><g clip-path="url(#d4f6e16ee7)"><path fill="#ffffff" d="M 0.488281 0 L 47.511719 0 L 47.511719 47.019531 L 0.488281 47.019531 Z M 0.488281 0 " fill-opacity="1" fill-rule="nonzero"/><path fill="#ffffff" d="M 0.488281 0 L 47.511719 0 L 47.511719 47.019531 L 0.488281 47.019531 Z M 0.488281 0 " fill-opacity="1" fill-rule="nonzero"/></g><path fill="#000000" d="M 4.929688 23.609375 C 4.773438 23.609375 4.574219 23.597656 4.34375 23.582031 C 4.109375 23.566406 3.894531 23.558594 3.695312 23.558594 C 3.511719 23.558594 3.335938 23.558594 3.167969 23.566406 C 2.996094 23.570312 2.84375 23.574219 2.707031 23.574219 C 2.695312 23.574219 2.6875 23.558594 2.6875 23.523438 C 2.6875 23.488281 2.695312 23.472656 2.707031 23.472656 C 2.921875 23.472656 3.085938 23.457031 3.195312 23.429688 C 3.308594 23.402344 3.378906 23.34375 3.417969 23.257812 C 3.453125 23.171875 3.472656 23.046875 3.472656 22.882812 L 3.472656 18.9375 C 3.472656 18.773438 3.453125 18.648438 3.417969 18.566406 C 3.378906 18.484375 3.308594 18.425781 3.199219 18.394531 C 3.09375 18.363281 2.929688 18.347656 2.714844 18.347656 C 2.703125 18.347656 2.699219 18.332031 2.699219 18.296875 C 2.699219 18.265625 2.703125 18.246094 2.714844 18.246094 C 2.851562 18.246094 3.003906 18.25 3.171875 18.257812 C 3.339844 18.269531 3.511719 18.273438 3.695312 18.273438 C 3.875 18.273438 4.070312 18.265625 4.277344 18.25 C 4.484375 18.238281 4.664062 18.230469 4.8125 18.230469 C 5.417969 18.230469 5.949219 18.34375 6.40625 18.570312 C 6.859375 18.796875 7.214844 19.109375 7.464844 19.5 C 7.71875 19.890625 7.84375 20.332031 7.84375 20.820312 C 7.84375 21.246094 7.769531 21.632812 7.617188 21.976562 C 7.460938 22.320312 7.25 22.613281 6.980469 22.855469 C 6.710938 23.09375 6.398438 23.28125 6.046875 23.410156 C 5.695312 23.542969 5.324219 23.609375 4.929688 23.609375 Z M 4.84375 23.496094 C 5.324219 23.496094 5.746094 23.402344 6.109375 23.210938 C 6.476562 23.023438 6.765625 22.738281 6.976562 22.367188 C 7.1875 21.996094 7.292969 21.542969 7.292969 21.007812 C 7.292969 20.507812 7.195312 20.058594 6.996094 19.65625 C 6.800781 19.257812 6.523438 18.9375 6.167969 18.699219 C 5.808594 18.460938 5.382812 18.339844 4.886719 18.339844 C 4.542969 18.339844 4.292969 18.375 4.148438 18.445312 C 4 18.519531 3.925781 18.6875 3.925781 18.953125 L 3.925781 22.789062 C 3.925781 23.035156 3.984375 23.214844 4.097656 23.328125 C 4.214844 23.441406 4.464844 23.496094 4.84375 23.496094 Z M 4.84375 23.496094 " fill-opacity="1" fill-rule="nonzero"/><path fill="#000000" d="M 14.890625 23.675781 C 14.484375 23.675781 14.113281 23.601562 13.78125 23.457031 C 13.449219 23.3125 13.164062 23.113281 12.925781 22.859375 C 12.691406 22.601562 12.507812 22.308594 12.382812 21.976562 C 12.253906 21.644531 12.191406 21.289062 12.191406 20.914062 C 12.191406 20.453125 12.28125 20.050781 12.457031 19.703125 C 12.636719 19.359375 12.875 19.070312 13.171875 18.839844 C 13.464844 18.609375 13.789062 18.4375 14.140625 18.324219 C 14.492188 18.210938 14.84375 18.152344 15.191406 18.152344 C 15.609375 18.152344 15.988281 18.226562 16.320312 18.378906 C 16.652344 18.53125 16.933594 18.734375 17.167969 18.988281 C 17.402344 19.242188 17.578125 19.535156 17.699219 19.859375 C 17.824219 20.183594 17.882812 20.515625 17.882812 20.855469 C 17.882812 21.253906 17.804688 21.621094 17.644531 21.964844 C 17.484375 22.304688 17.269531 22.601562 16.992188 22.859375 C 16.71875 23.113281 16.398438 23.3125 16.039062 23.457031 C 15.675781 23.601562 15.296875 23.675781 14.890625 23.675781 Z M 15.199219 23.503906 C 15.597656 23.503906 15.957031 23.414062 16.28125 23.230469 C 16.605469 23.042969 16.863281 22.769531 17.050781 22.410156 C 17.242188 22.050781 17.339844 21.609375 17.339844 21.09375 C 17.339844 20.554688 17.234375 20.078125 17.027344 19.667969 C 16.820312 19.253906 16.527344 18.929688 16.152344 18.695312 C 15.777344 18.457031 15.339844 18.339844 14.832031 18.339844 C 14.171875 18.339844 13.660156 18.546875 13.289062 18.953125 C 12.921875 19.363281 12.734375 19.921875 12.734375 20.625 C 12.734375 21.023438 12.792969 21.394531 12.910156 21.746094 C 13.027344 22.09375 13.195312 22.402344 13.414062 22.667969 C 13.632812 22.929688 13.890625 23.136719 14.191406 23.285156 C 14.492188 23.433594 14.828125 23.503906 15.199219 23.503906 Z M 15.199219 23.503906 " fill-opacity="1" fill-rule="nonzero"/><path fill="#000000" d="M 22.832031 22.6875 L 22.917969 18.441406 L 23.105469 18.460938 L 23.03125 22.6875 C 23.023438 22.976562 23.070312 23.179688 23.171875 23.296875 C 23.269531 23.414062 23.460938 23.472656 23.746094 23.472656 C 23.757812 23.472656 23.761719 23.488281 23.761719 23.523438 C 23.761719 23.558594 23.757812 23.574219 23.746094 23.574219 C 23.621094 23.574219 23.492188 23.570312 23.359375 23.566406 C 23.222656 23.558594 23.078125 23.558594 22.917969 23.558594 C 22.78125 23.558594 22.652344 23.558594 22.527344 23.566406 C 22.402344 23.570312 22.28125 23.574219 22.167969 23.574219 C 22.15625 23.574219 22.152344 23.558594 22.152344 23.523438 C 22.152344 23.488281 22.15625 23.472656 22.167969 23.472656 C 22.40625 23.472656 22.578125 23.414062 22.675781 23.296875 C 22.773438 23.179688 22.828125 22.976562 22.832031 22.6875 Z M 28.6875 23.472656 C 28.707031 23.472656 28.714844 23.488281 28.714844 23.523438 C 28.714844 23.558594 28.707031 23.574219 28.6875 23.574219 C 28.550781 23.574219 28.402344 23.570312 28.234375 23.566406 C 28.066406 23.558594 27.886719 23.558594 27.699219 23.558594 C 27.523438 23.558594 27.363281 23.558594 27.214844 23.566406 C 27.066406 23.570312 26.933594 23.574219 26.8125 23.574219 C 26.800781 23.574219 26.796875 23.558594 26.796875 23.523438 C 26.796875 23.488281 26.800781 23.472656 26.8125 23.472656 C 27.097656 23.472656 27.28125 23.433594 27.363281 23.359375 C 27.445312 23.289062 27.480469 23.128906 27.46875 22.882812 L 27.316406 18.679688 L 27.5625 18.367188 L 25.332031 23.515625 C 25.324219 23.535156 25.300781 23.546875 25.261719 23.546875 C 25.222656 23.546875 25.195312 23.535156 25.1875 23.515625 L 23.105469 18.953125 C 22.925781 18.550781 22.632812 18.347656 22.226562 18.347656 C 22.21875 18.347656 22.210938 18.332031 22.210938 18.296875 C 22.210938 18.265625 22.21875 18.246094 22.226562 18.246094 C 22.3125 18.246094 22.402344 18.25 22.5 18.253906 C 22.597656 18.261719 22.675781 18.265625 22.738281 18.265625 C 22.820312 18.265625 22.894531 18.261719 22.960938 18.253906 C 23.03125 18.25 23.082031 18.246094 23.113281 18.246094 C 23.195312 18.246094 23.257812 18.273438 23.300781 18.324219 C 23.347656 18.375 23.414062 18.496094 23.507812 18.691406 L 25.457031 22.910156 L 25.238281 23.265625 L 27.332031 18.460938 C 27.363281 18.398438 27.402344 18.347656 27.449219 18.308594 C 27.496094 18.265625 27.542969 18.246094 27.589844 18.246094 C 27.617188 18.246094 27.660156 18.25 27.71875 18.253906 C 27.773438 18.261719 27.839844 18.265625 27.914062 18.265625 C 28.0625 18.265625 28.179688 18.261719 28.269531 18.253906 C 28.363281 18.25 28.457031 18.246094 28.5625 18.246094 C 28.570312 18.246094 28.578125 18.265625 28.578125 18.296875 C 28.578125 18.332031 28.570312 18.347656 28.5625 18.347656 C 28.28125 18.347656 28.078125 18.382812 27.945312 18.457031 C 27.816406 18.527344 27.753906 18.679688 27.761719 18.921875 L 27.921875 22.882812 C 27.925781 23.046875 27.949219 23.171875 27.984375 23.257812 C 28.023438 23.34375 28.09375 23.402344 28.203125 23.429688 C 28.3125 23.457031 28.472656 23.472656 28.6875 23.472656 Z M 28.6875 23.472656 " fill-opacity="1" fill-rule="nonzero"/><path fill="#000000" d="M 37.269531 19.140625 C 37.269531 18.871094 37.210938 18.667969 37.09375 18.542969 C 36.976562 18.414062 36.796875 18.347656 36.546875 18.347656 C 36.527344 18.347656 36.519531 18.332031 36.519531 18.296875 C 36.519531 18.265625 36.527344 18.246094 36.546875 18.246094 C 36.671875 18.246094 36.800781 18.25 36.933594 18.257812 C 37.066406 18.269531 37.210938 18.273438 37.371094 18.273438 C 37.503906 18.273438 37.632812 18.269531 37.769531 18.257812 C 37.902344 18.25 38.023438 18.246094 38.128906 18.246094 C 38.140625 18.246094 38.148438 18.265625 38.148438 18.296875 C 38.148438 18.332031 38.140625 18.347656 38.128906 18.347656 C 37.902344 18.347656 37.734375 18.414062 37.625 18.542969 C 37.511719 18.667969 37.457031 18.871094 37.457031 19.140625 L 37.457031 21.578125 C 37.457031 22.027344 37.375 22.410156 37.210938 22.722656 C 37.046875 23.035156 36.8125 23.273438 36.515625 23.4375 C 36.21875 23.601562 35.867188 23.683594 35.472656 23.683594 C 35.050781 23.683594 34.683594 23.601562 34.371094 23.433594 C 34.058594 23.265625 33.816406 23.03125 33.648438 22.726562 C 33.476562 22.421875 33.390625 22.066406 33.390625 21.65625 L 33.390625 18.9375 C 33.390625 18.773438 33.375 18.648438 33.335938 18.566406 C 33.300781 18.484375 33.226562 18.425781 33.117188 18.394531 C 33.011719 18.363281 32.847656 18.347656 32.632812 18.347656 C 32.621094 18.347656 32.617188 18.332031 32.617188 18.296875 C 32.617188 18.265625 32.621094 18.246094 32.632812 18.246094 C 32.769531 18.246094 32.917969 18.25 33.085938 18.257812 C 33.25 18.269531 33.425781 18.273438 33.613281 18.273438 C 33.804688 18.273438 33.988281 18.269531 34.15625 18.257812 C 34.320312 18.25 34.46875 18.246094 34.59375 18.246094 C 34.609375 18.246094 34.617188 18.265625 34.617188 18.296875 C 34.617188 18.332031 34.609375 18.347656 34.59375 18.347656 C 34.378906 18.347656 34.214844 18.367188 34.105469 18.402344 C 34 18.433594 33.929688 18.496094 33.894531 18.578125 C 33.859375 18.664062 33.84375 18.789062 33.84375 18.953125 L 33.84375 21.359375 C 33.84375 22.027344 34 22.542969 34.3125 22.902344 C 34.625 23.257812 35.0625 23.4375 35.625 23.4375 C 36.148438 23.4375 36.550781 23.273438 36.839844 22.941406 C 37.125 22.613281 37.269531 22.164062 37.269531 21.585938 Z M 37.269531 19.140625 " fill-opacity="1" fill-rule="nonzero"/><path fill="#000000" d="M 43.019531 19.277344 C 43.019531 19.515625 43.078125 19.71875 43.195312 19.886719 C 43.3125 20.054688 43.460938 20.203125 43.648438 20.328125 C 43.832031 20.453125 44.027344 20.574219 44.230469 20.691406 C 44.441406 20.8125 44.644531 20.9375 44.835938 21.074219 C 45.027344 21.207031 45.191406 21.363281 45.316406 21.550781 C 45.445312 21.734375 45.507812 21.964844 45.507812 22.234375 C 45.507812 22.496094 45.445312 22.738281 45.316406 22.957031 C 45.191406 23.175781 44.996094 23.351562 44.742188 23.480469 C 44.488281 23.609375 44.164062 23.675781 43.777344 23.675781 C 43.65625 23.675781 43.53125 23.667969 43.410156 23.652344 C 43.285156 23.632812 43.160156 23.601562 43.035156 23.5625 C 42.90625 23.519531 42.769531 23.460938 42.621094 23.386719 C 42.589844 23.371094 42.574219 23.347656 42.566406 23.324219 C 42.554688 23.296875 42.550781 23.265625 42.542969 23.222656 L 42.414062 22.117188 C 42.410156 22.089844 42.421875 22.074219 42.453125 22.070312 C 42.484375 22.066406 42.503906 22.078125 42.507812 22.097656 C 42.53125 22.269531 42.578125 22.441406 42.644531 22.609375 C 42.714844 22.78125 42.804688 22.9375 42.921875 23.078125 C 43.039062 23.222656 43.183594 23.335938 43.359375 23.425781 C 43.53125 23.511719 43.734375 23.558594 43.964844 23.558594 C 44.144531 23.558594 44.3125 23.523438 44.476562 23.457031 C 44.644531 23.394531 44.777344 23.289062 44.882812 23.140625 C 44.988281 22.992188 45.039062 22.789062 45.039062 22.535156 C 45.039062 22.253906 44.980469 22.023438 44.855469 21.839844 C 44.734375 21.65625 44.582031 21.496094 44.394531 21.363281 C 44.203125 21.226562 44.007812 21.101562 43.796875 20.984375 C 43.597656 20.863281 43.402344 20.738281 43.214844 20.609375 C 43.03125 20.476562 42.878906 20.324219 42.761719 20.144531 C 42.644531 19.964844 42.585938 19.742188 42.585938 19.472656 C 42.585938 19.179688 42.660156 18.933594 42.808594 18.738281 C 42.957031 18.542969 43.148438 18.394531 43.382812 18.296875 C 43.617188 18.203125 43.863281 18.152344 44.121094 18.152344 C 44.269531 18.152344 44.421875 18.167969 44.585938 18.199219 C 44.746094 18.230469 44.914062 18.285156 45.089844 18.359375 C 45.136719 18.375 45.171875 18.394531 45.191406 18.421875 C 45.210938 18.445312 45.21875 18.472656 45.21875 18.503906 L 45.296875 19.40625 C 45.296875 19.429688 45.28125 19.441406 45.25 19.441406 C 45.21875 19.441406 45.199219 19.429688 45.195312 19.40625 C 45.183594 19.28125 45.152344 19.152344 45.105469 19.019531 C 45.054688 18.882812 44.984375 18.761719 44.890625 18.648438 C 44.796875 18.535156 44.679688 18.441406 44.535156 18.371094 C 44.386719 18.300781 44.214844 18.265625 44.007812 18.265625 C 43.765625 18.265625 43.570312 18.316406 43.425781 18.417969 C 43.28125 18.519531 43.175781 18.648438 43.113281 18.800781 C 43.050781 18.953125 43.019531 19.113281 43.019531 19.277344 Z M 43.019531 19.277344 " fill-opacity="1" fill-rule="nonzero"/><path fill="#000000" d="M 9.71875 31.089844 L 9.222656 28.785156 C 9.199219 28.671875 9.167969 28.59375 9.128906 28.550781 C 9.089844 28.503906 9.03125 28.480469 8.957031 28.480469 C 8.953125 28.480469 8.949219 28.472656 8.949219 28.457031 C 8.949219 28.4375 8.953125 28.429688 8.957031 28.429688 C 9.007812 28.429688 9.0625 28.433594 9.121094 28.4375 C 9.179688 28.441406 9.234375 28.445312 9.285156 28.445312 C 9.375 28.445312 9.457031 28.441406 9.523438 28.4375 C 9.59375 28.433594 9.65625 28.429688 9.710938 28.429688 C 9.722656 28.429688 9.726562 28.4375 9.726562 28.457031 C 9.726562 28.472656 9.722656 28.480469 9.710938 28.480469 C 9.625 28.480469 9.554688 28.5 9.507812 28.535156 C 9.460938 28.570312 9.449219 28.640625 9.472656 28.742188 L 9.929688 30.808594 L 9.761719 30.996094 L 10.910156 28.785156 C 10.964844 28.679688 10.972656 28.601562 10.941406 28.554688 C 10.910156 28.507812 10.832031 28.480469 10.699219 28.480469 C 10.691406 28.480469 10.6875 28.472656 10.6875 28.457031 C 10.6875 28.4375 10.691406 28.429688 10.699219 28.429688 C 10.757812 28.429688 10.8125 28.433594 10.867188 28.4375 C 10.921875 28.441406 10.996094 28.445312 11.085938 28.445312 C 11.15625 28.445312 11.210938 28.441406 11.257812 28.4375 C 11.300781 28.433594 11.355469 28.429688 11.421875 28.429688 C 11.433594 28.429688 11.4375 28.4375 11.4375 28.457031 C 11.4375 28.472656 11.433594 28.480469 11.421875 28.480469 C 11.371094 28.480469 11.324219 28.492188 11.277344 28.507812 C 11.226562 28.523438 11.179688 28.554688 11.136719 28.601562 C 11.089844 28.648438 11.042969 28.714844 10.992188 28.808594 L 9.8125 31.089844 C 9.804688 31.101562 9.789062 31.105469 9.761719 31.105469 C 9.738281 31.105469 9.722656 31.101562 9.71875 31.089844 Z M 9.71875 31.089844 " fill-opacity="1" fill-rule="nonzero"/><path fill="#000000" d="M 13.730469 31.09375 C 13.722656 31.09375 13.71875 31.085938 13.71875 31.070312 C 13.71875 31.050781 13.722656 31.042969 13.730469 31.042969 C 13.820312 31.042969 13.886719 31.035156 13.933594 31.023438 C 13.980469 31.007812 14.015625 30.980469 14.035156 30.9375 C 14.054688 30.894531 14.074219 30.832031 14.089844 30.75 L 14.4375 28.777344 C 14.460938 28.652344 14.457031 28.574219 14.421875 28.539062 C 14.390625 28.5 14.308594 28.480469 14.179688 28.480469 C 14.171875 28.480469 14.164062 28.472656 14.164062 28.457031 C 14.164062 28.4375 14.171875 28.429688 14.179688 28.429688 C 14.238281 28.429688 14.304688 28.433594 14.375 28.4375 C 14.449219 28.441406 14.527344 28.445312 14.609375 28.445312 C 14.699219 28.445312 14.78125 28.441406 14.855469 28.4375 C 14.929688 28.433594 14.996094 28.429688 15.050781 28.429688 C 15.058594 28.429688 15.0625 28.4375 15.0625 28.457031 C 15.0625 28.472656 15.058594 28.480469 15.050781 28.480469 C 14.964844 28.480469 14.898438 28.492188 14.847656 28.507812 C 14.800781 28.523438 14.769531 28.554688 14.746094 28.597656 C 14.726562 28.640625 14.707031 28.703125 14.691406 28.785156 L 14.339844 30.75 C 14.320312 30.871094 14.324219 30.949219 14.355469 30.988281 C 14.386719 31.023438 14.472656 31.042969 14.605469 31.042969 C 14.609375 31.042969 14.613281 31.050781 14.613281 31.070312 C 14.613281 31.085938 14.609375 31.09375 14.605469 31.09375 C 14.542969 31.09375 14.480469 31.09375 14.40625 31.089844 C 14.335938 31.085938 14.253906 31.085938 14.164062 31.085938 C 14.082031 31.085938 14.003906 31.085938 13.929688 31.089844 C 13.855469 31.09375 13.789062 31.09375 13.730469 31.09375 Z M 13.730469 31.09375 " fill-opacity="1" fill-rule="nonzero"/><path fill="#000000" d="M 17.527344 31.09375 C 17.519531 31.09375 17.511719 31.085938 17.511719 31.070312 C 17.511719 31.050781 17.519531 31.042969 17.527344 31.042969 C 17.621094 31.042969 17.695312 31.035156 17.75 31.023438 C 17.800781 31.007812 17.839844 30.980469 17.867188 30.9375 C 17.890625 30.894531 17.910156 30.832031 17.925781 30.75 L 18.273438 28.777344 C 18.289062 28.695312 18.292969 28.632812 18.285156 28.589844 C 18.277344 28.550781 18.253906 28.519531 18.210938 28.503906 C 18.167969 28.488281 18.097656 28.480469 18 28.480469 C 17.992188 28.480469 17.984375 28.472656 17.984375 28.457031 C 17.984375 28.4375 17.992188 28.429688 18 28.429688 C 18.0625 28.429688 18.128906 28.433594 18.207031 28.4375 C 18.285156 28.441406 18.367188 28.445312 18.449219 28.445312 C 18.515625 28.445312 18.59375 28.4375 18.683594 28.429688 C 18.773438 28.421875 18.847656 28.417969 18.90625 28.417969 C 19.144531 28.417969 19.3125 28.46875 19.414062 28.566406 C 19.511719 28.667969 19.542969 28.8125 19.507812 29 C 19.476562 29.152344 19.414062 29.289062 19.308594 29.40625 C 19.207031 29.527344 19.085938 29.621094 18.941406 29.6875 C 18.792969 29.757812 18.640625 29.789062 18.480469 29.789062 C 18.457031 29.789062 18.429688 29.789062 18.394531 29.789062 C 18.359375 29.785156 18.335938 29.785156 18.316406 29.78125 L 18.328125 29.671875 C 18.363281 29.675781 18.402344 29.683594 18.445312 29.6875 C 18.488281 29.691406 18.527344 29.691406 18.558594 29.691406 C 18.757812 29.691406 18.910156 29.648438 19.011719 29.5625 C 19.113281 29.480469 19.183594 29.335938 19.226562 29.136719 C 19.257812 28.96875 19.261719 28.839844 19.230469 28.742188 C 19.203125 28.648438 19.148438 28.582031 19.078125 28.542969 C 19.003906 28.5 18.917969 28.480469 18.816406 28.480469 C 18.753906 28.480469 18.703125 28.484375 18.667969 28.496094 C 18.628906 28.503906 18.601562 28.527344 18.578125 28.570312 C 18.554688 28.613281 18.535156 28.683594 18.515625 28.785156 L 18.167969 30.75 C 18.152344 30.832031 18.148438 30.894531 18.15625 30.9375 C 18.160156 30.980469 18.1875 31.007812 18.230469 31.023438 C 18.273438 31.035156 18.34375 31.042969 18.4375 31.042969 C 18.449219 31.042969 18.453125 31.050781 18.453125 31.070312 C 18.453125 31.085938 18.449219 31.09375 18.441406 31.09375 C 18.375 31.09375 18.304688 31.09375 18.230469 31.089844 C 18.15625 31.085938 18.074219 31.085938 17.984375 31.085938 C 17.902344 31.085938 17.820312 31.085938 17.738281 31.089844 C 17.660156 31.09375 17.589844 31.09375 17.527344 31.09375 Z M 19.511719 31.09375 C 19.46875 31.09375 19.40625 31.039062 19.328125 30.933594 C 19.25 30.828125 19.160156 30.671875 19.054688 30.464844 C 18.953125 30.257812 18.839844 30.011719 18.71875 29.722656 L 18.921875 29.648438 C 19.082031 29.996094 19.21875 30.269531 19.335938 30.472656 C 19.453125 30.675781 19.5625 30.824219 19.660156 30.910156 C 19.761719 31 19.867188 31.042969 19.972656 31.042969 C 19.980469 31.042969 19.988281 31.050781 19.988281 31.070312 C 19.988281 31.085938 19.980469 31.09375 19.972656 31.09375 C 19.851562 31.09375 19.753906 31.09375 19.679688 31.09375 C 19.605469 31.09375 19.546875 31.09375 19.511719 31.09375 Z M 19.511719 31.09375 " fill-opacity="1" fill-rule="nonzero"/><path fill="#000000" d="M 23.1875 31.09375 C 23.179688 31.09375 23.175781 31.085938 23.175781 31.070312 C 23.175781 31.050781 23.179688 31.042969 23.1875 31.042969 C 23.28125 31.042969 23.355469 31.035156 23.402344 31.023438 C 23.449219 31.007812 23.488281 30.980469 23.511719 30.9375 C 23.535156 30.894531 23.554688 30.832031 23.566406 30.75 L 23.917969 28.777344 C 23.9375 28.664062 23.933594 28.589844 23.90625 28.554688 C 23.878906 28.519531 23.8125 28.503906 23.699219 28.503906 L 23.597656 28.503906 C 23.484375 28.503906 23.386719 28.523438 23.308594 28.566406 C 23.230469 28.609375 23.160156 28.675781 23.105469 28.765625 C 23.050781 28.855469 23 28.972656 22.960938 29.117188 C 22.957031 29.125 22.945312 29.128906 22.929688 29.125 C 22.914062 29.121094 22.90625 29.113281 22.90625 29.109375 C 22.917969 29.070312 22.933594 29.019531 22.949219 28.953125 C 22.96875 28.886719 22.984375 28.8125 23.003906 28.738281 C 23.027344 28.660156 23.042969 28.585938 23.058594 28.515625 C 23.074219 28.441406 23.085938 28.382812 23.09375 28.335938 C 23.101562 28.328125 23.113281 28.324219 23.128906 28.328125 C 23.144531 28.328125 23.148438 28.332031 23.148438 28.339844 C 23.140625 28.382812 23.160156 28.410156 23.203125 28.417969 C 23.246094 28.425781 23.28125 28.429688 23.3125 28.429688 C 23.417969 28.433594 23.539062 28.4375 23.679688 28.4375 C 23.820312 28.441406 23.957031 28.445312 24.09375 28.445312 C 24.261719 28.445312 24.40625 28.441406 24.523438 28.4375 C 24.640625 28.433594 24.746094 28.429688 24.84375 28.429688 C 24.921875 28.429688 24.984375 28.425781 25.027344 28.410156 C 25.070312 28.398438 25.105469 28.371094 25.125 28.324219 C 25.128906 28.316406 25.140625 28.3125 25.152344 28.3125 C 25.167969 28.316406 25.171875 28.320312 25.171875 28.332031 C 25.160156 28.371094 25.144531 28.429688 25.128906 28.5 C 25.109375 28.574219 25.09375 28.648438 25.074219 28.730469 C 25.054688 28.808594 25.039062 28.882812 25.027344 28.949219 C 25.015625 29.019531 25.007812 29.070312 25 29.109375 C 24.996094 29.117188 24.988281 29.121094 24.972656 29.121094 C 24.957031 29.117188 24.949219 29.109375 24.953125 29.101562 C 24.980469 28.957031 24.984375 28.84375 24.96875 28.757812 C 24.953125 28.671875 24.914062 28.605469 24.847656 28.566406 C 24.78125 28.523438 24.6875 28.503906 24.566406 28.503906 L 24.464844 28.503906 C 24.351562 28.503906 24.28125 28.523438 24.242188 28.5625 C 24.207031 28.597656 24.179688 28.671875 24.160156 28.785156 L 23.816406 30.75 C 23.800781 30.832031 23.796875 30.894531 23.808594 30.9375 C 23.816406 30.980469 23.84375 31.007812 23.886719 31.023438 C 23.933594 31.035156 24.003906 31.042969 24.101562 31.042969 C 24.105469 31.042969 24.109375 31.050781 24.109375 31.070312 C 24.109375 31.085938 24.105469 31.09375 24.101562 31.09375 C 24.039062 31.09375 23.96875 31.09375 23.894531 31.089844 C 23.820312 31.085938 23.734375 31.085938 23.640625 31.085938 C 23.554688 31.085938 23.472656 31.085938 23.394531 31.089844 C 23.316406 31.09375 23.25 31.09375 23.1875 31.09375 Z M 23.1875 31.09375 " fill-opacity="1" fill-rule="nonzero"/><path fill="#000000" d="M 29.847656 28.886719 C 29.871094 28.75 29.859375 28.648438 29.816406 28.582031 C 29.773438 28.515625 29.699219 28.480469 29.585938 28.480469 C 29.578125 28.480469 29.574219 28.472656 29.574219 28.457031 C 29.574219 28.4375 29.578125 28.429688 29.585938 28.429688 C 29.644531 28.429688 29.707031 28.433594 29.769531 28.4375 C 29.828125 28.441406 29.898438 28.445312 29.96875 28.445312 C 30.03125 28.445312 30.09375 28.441406 30.15625 28.4375 C 30.214844 28.433594 30.269531 28.429688 30.320312 28.429688 C 30.332031 28.429688 30.335938 28.4375 30.335938 28.457031 C 30.332031 28.472656 30.328125 28.480469 30.320312 28.480469 C 30.214844 28.480469 30.128906 28.519531 30.066406 28.589844 C 30.003906 28.664062 29.957031 28.765625 29.933594 28.902344 L 29.71875 30.136719 C 29.679688 30.351562 29.609375 30.535156 29.507812 30.6875 C 29.402344 30.839844 29.277344 30.953125 29.125 31.03125 C 28.976562 31.109375 28.808594 31.148438 28.621094 31.148438 C 28.433594 31.148438 28.277344 31.109375 28.152344 31.027344 C 28.027344 30.945312 27.9375 30.832031 27.890625 30.683594 C 27.839844 30.535156 27.832031 30.355469 27.863281 30.152344 L 28.113281 28.773438 C 28.136719 28.648438 28.128906 28.566406 28.09375 28.53125 C 28.0625 28.5 27.976562 28.480469 27.839844 28.480469 C 27.832031 28.480469 27.828125 28.472656 27.828125 28.457031 C 27.828125 28.4375 27.832031 28.429688 27.839844 28.429688 C 27.902344 28.429688 27.972656 28.433594 28.046875 28.4375 C 28.125 28.441406 28.203125 28.445312 28.285156 28.445312 C 28.378906 28.445312 28.460938 28.441406 28.539062 28.4375 C 28.617188 28.433594 28.683594 28.429688 28.738281 28.429688 C 28.75 28.429688 28.753906 28.4375 28.753906 28.457031 C 28.753906 28.472656 28.75 28.480469 28.738281 28.480469 C 28.644531 28.480469 28.574219 28.492188 28.519531 28.507812 C 28.46875 28.523438 28.433594 28.554688 28.410156 28.601562 C 28.386719 28.648438 28.367188 28.710938 28.355469 28.792969 L 28.132812 30.019531 C 28.074219 30.355469 28.101562 30.605469 28.210938 30.773438 C 28.324219 30.9375 28.496094 31.023438 28.722656 31.023438 C 28.953125 31.023438 29.152344 30.941406 29.3125 30.78125 C 29.472656 30.621094 29.578125 30.402344 29.625 30.125 Z M 29.847656 28.886719 " fill-opacity="1" fill-rule="nonzero"/><path fill="#000000" d="M 32.441406 31.09375 C 32.433594 31.09375 32.425781 31.085938 32.425781 31.070312 C 32.425781 31.050781 32.433594 31.042969 32.441406 31.042969 C 32.515625 31.042969 32.601562 31.011719 32.695312 30.945312 C 32.792969 30.878906 32.890625 30.753906 32.996094 30.570312 L 34.214844 28.386719 C 34.222656 28.375 34.234375 28.375 34.257812 28.378906 C 34.277344 28.382812 34.289062 28.386719 34.292969 28.398438 L 34.667969 30.738281 C 34.679688 30.8125 34.695312 30.875 34.710938 30.917969 C 34.730469 30.964844 34.761719 30.996094 34.800781 31.015625 C 34.84375 31.035156 34.90625 31.042969 34.988281 31.042969 C 35 31.042969 35.003906 31.050781 35.003906 31.070312 C 35.003906 31.085938 35 31.09375 34.988281 31.09375 C 34.921875 31.09375 34.855469 31.089844 34.785156 31.085938 C 34.714844 31.078125 34.640625 31.078125 34.554688 31.078125 C 34.472656 31.078125 34.402344 31.078125 34.339844 31.085938 C 34.277344 31.089844 34.210938 31.09375 34.144531 31.09375 C 34.132812 31.09375 34.128906 31.085938 34.128906 31.070312 C 34.128906 31.050781 34.132812 31.042969 34.144531 31.042969 C 34.277344 31.042969 34.359375 31.023438 34.390625 30.980469 C 34.425781 30.9375 34.433594 30.855469 34.417969 30.738281 L 34.09375 28.722656 L 34.199219 28.597656 L 33.136719 30.53125 C 33.058594 30.675781 33.015625 30.78125 33.007812 30.855469 C 33 30.929688 33.019531 30.980469 33.070312 31.003906 C 33.117188 31.03125 33.1875 31.042969 33.28125 31.042969 C 33.292969 31.042969 33.300781 31.050781 33.300781 31.070312 C 33.300781 31.085938 33.292969 31.09375 33.277344 31.09375 C 33.222656 31.09375 33.152344 31.089844 33.070312 31.085938 C 32.992188 31.078125 32.910156 31.078125 32.835938 31.078125 C 32.753906 31.078125 32.683594 31.078125 32.632812 31.085938 C 32.578125 31.089844 32.515625 31.09375 32.441406 31.09375 Z M 33.410156 29.921875 L 33.472656 29.835938 L 34.390625 29.835938 L 34.398438 29.921875 Z M 33.410156 29.921875 " fill-opacity="1" fill-rule="nonzero"/><path fill="#000000" d="M 37.703125 31.09375 C 37.695312 31.09375 37.695312 31.085938 37.695312 31.070312 C 37.695312 31.050781 37.695312 31.042969 37.703125 31.042969 C 37.789062 31.042969 37.859375 31.035156 37.90625 31.023438 C 37.953125 31.007812 37.988281 30.980469 38.011719 30.9375 C 38.03125 30.894531 38.050781 30.832031 38.066406 30.75 L 38.414062 28.777344 C 38.4375 28.652344 38.433594 28.574219 38.398438 28.539062 C 38.367188 28.5 38.285156 28.480469 38.15625 28.480469 C 38.148438 28.480469 38.144531 28.472656 38.144531 28.457031 C 38.144531 28.4375 38.148438 28.429688 38.15625 28.429688 C 38.214844 28.429688 38.28125 28.433594 38.351562 28.4375 C 38.421875 28.441406 38.5 28.445312 38.582031 28.445312 C 38.664062 28.445312 38.742188 28.441406 38.820312 28.4375 C 38.898438 28.433594 38.964844 28.429688 39.019531 28.429688 C 39.023438 28.429688 39.027344 28.4375 39.027344 28.457031 C 39.027344 28.472656 39.023438 28.480469 39.019531 28.480469 C 38.933594 28.480469 38.863281 28.488281 38.816406 28.503906 C 38.769531 28.519531 38.738281 28.550781 38.714844 28.59375 C 38.695312 28.636719 38.675781 28.699219 38.65625 28.78125 L 38.3125 30.730469 C 38.292969 30.851562 38.296875 30.929688 38.328125 30.960938 C 38.355469 30.996094 38.433594 31.011719 38.554688 31.011719 L 38.984375 31.011719 C 39.148438 31.011719 39.285156 30.960938 39.386719 30.859375 C 39.488281 30.757812 39.570312 30.621094 39.632812 30.445312 C 39.632812 30.4375 39.640625 30.433594 39.660156 30.4375 C 39.679688 30.441406 39.6875 30.445312 39.683594 30.453125 C 39.660156 30.53125 39.636719 30.625 39.609375 30.730469 C 39.582031 30.839844 39.5625 30.941406 39.546875 31.03125 C 39.539062 31.074219 39.515625 31.09375 39.480469 31.09375 Z M 37.703125 31.09375 " fill-opacity="1" fill-rule="nonzero"/></svg>